<svg width="2344" height="152" viewBox="0 0 2344 152" fill="none" xmlns="http://www.w3.org/2000/svg">
<path d="M0 0V151.74H2343.43V124.425H2233.7V27.3153H2343.43V0H0ZM2317.07 132.462H2335.67V144.317H2317.07V132.462ZM2282.25 132.462H2300.85V144.317H2282.25V132.462ZM2247.4 132.462H2266V144.317H2247.4V132.462ZM2317.07 7.33782H2335.67V19.1928H2317.07V7.33782ZM2282.25 7.33782H2300.85V19.1928H2282.25V7.33782ZM2247.4 7.33782H2266V19.1928H2247.4V7.33782ZM36.6042 144.317H18.0052V132.462H36.6042V144.317ZM71.4269 144.317H52.8279V132.462H71.4269V144.317ZM106.271 144.317H87.6719V132.462H106.271V144.317ZM141.094 144.317H122.495V132.462H141.094V144.317ZM175.938 144.317H157.339V132.462H175.938V144.317ZM245.604 144.317H227.005V132.462H245.604V144.317ZM202.638 124.425V27.3153H367.972V124.425H202.638ZM280.427 144.317H261.828V132.462H280.427V144.317ZM315.271 144.317H296.672V132.462H315.271V144.317ZM350.115 144.317H331.516V132.462H350.115V144.317ZM384.938 144.317H366.339V132.462H384.938V144.317ZM419.782 144.317H401.183V132.462H419.782V144.317ZM454.604 144.317H436.005V132.462H454.604V144.317ZM489.448 144.317H470.849V132.462H489.448V144.317ZM524.271 144.317H505.672V132.462H524.271V144.317ZM559.115 144.317H540.516V132.462H559.115V144.317ZM593.938 144.317H575.339V132.462H593.938V144.317ZM628.782 144.317H610.183V132.462H628.782V144.317ZM663.605 144.317H645.006V132.462H663.605V144.317ZM698.448 144.317H679.849V132.462H698.448V144.317ZM733.292 144.317H714.693V132.462H733.292V144.317ZM802.959 144.317H784.36V132.462H802.959V144.317ZM837.782 144.317H819.183V132.462H837.782V144.317ZM872.626 144.317H854.027V132.462H872.626V144.317ZM907.449 144.317H888.85V132.462H907.449V144.317ZM977.115 144.317H958.516V132.462H977.115V144.317ZM941.211 124.425V27.3153H1106.54V124.425H941.211ZM1011.96 144.317H993.36V132.462H1011.96V144.317ZM1046.8 144.317H1028.2V132.462H1046.8V144.317ZM1081.63 144.317H1063.03V132.462H1081.63V144.317ZM1116.47 144.317H1097.87V132.462H1116.47V144.317ZM1151.29 144.317H1132.69V132.462H1151.29V144.317ZM1186.14 144.317H1167.54V132.462H1186.14V144.317ZM1220.96 144.317H1202.36V132.462H1220.96V144.317ZM1255.8 144.317H1237.2V132.462H1255.8V144.317ZM1290.63 144.317H1272.03V132.462H1290.63V144.317ZM1360.31 144.317H1341.71V132.462H1360.31V144.317ZM1395.14 144.317H1376.54V132.462H1395.14V144.317ZM1429.98 144.317H1411.38V132.462H1429.98V144.317ZM1464.8 144.317H1446.2V132.462H1464.8V144.317ZM1534.47 144.317H1515.87V132.462H1534.47V144.317ZM1495.13 124.425V27.3153H1660.46V124.425H1495.13ZM1569.31 144.317H1550.72V132.462H1569.31V144.317ZM1604.14 144.317H1585.54V132.462H1604.14V144.317ZM1638.98 144.317H1620.38V132.462H1638.98V144.317ZM1673.82 144.317H1655.23V132.462H1673.82V144.317ZM1708.65 144.317H1690.05V132.462H1708.65V144.317ZM1743.49 144.317H1724.89V132.462H1743.49V144.317ZM1778.31 144.317H1759.72V132.462H1778.31V144.317ZM1813.16 144.317H1794.56V132.462H1813.16V144.317ZM1847.98 144.317H1829.38V132.462H1847.98V144.317ZM1917.65 144.317H1899.05V132.462H1917.65V144.317ZM1952.49 144.317H1933.89V132.462H1952.49V144.317ZM1987.34 144.317H1968.74V132.462H1987.34V144.317ZM2022.16 144.317H2003.56V132.462H2022.16V144.317ZM2091.82 144.317H2073.23V132.462H2091.82V144.317ZM2049.05 124.425V27.3153H2214.38V124.425H2049.05ZM2126.67 144.317H2108.07V132.462H2126.67V144.317ZM2161.49 144.317H2142.89V132.462H2161.49V144.317ZM2196.34 144.317H2177.74V132.462H2196.34V144.317ZM2231.16 144.317H2212.56V132.462H2231.16V144.317ZM2212.58 7.33782H2231.18V19.1928H2212.58V7.33782ZM2177.74 7.33782H2196.34V19.1928H2177.74V7.33782ZM2142.91 7.33782H2161.51V19.1928H2142.91V7.33782ZM2108.07 7.33782H2126.67V19.1928H2108.07V7.33782ZM2073.25 7.33782H2091.85V19.1928H2073.25V7.33782ZM2038.4 7.33782H2057V19.1928H2038.4V7.33782ZM2038.4 132.462H2057V144.317H2038.4V132.462ZM2029.75 124.425H1864.42V27.3153H2029.75V124.425ZM2003.56 7.33782H2022.16V19.1928H2003.56V7.33782ZM1968.74 7.33782H1987.34V19.1928H1968.74V7.33782ZM1933.89 7.33782H1952.49V19.1928H1933.89V7.33782ZM1899.07 7.33782H1917.67V19.1928H1899.07V7.33782ZM1864.23 7.33782H1882.82V19.1928H1864.23V7.33782ZM1864.23 132.462H1882.82V144.317H1864.23V132.462ZM1829.4 7.33782H1848V19.1928H1829.4V7.33782ZM1794.56 7.33782H1813.16V19.1928H1794.56V7.33782ZM1759.74 7.33782H1778.34V19.1928H1759.74V7.33782ZM1724.89 7.33782H1743.49V19.1928H1724.89V7.33782ZM1690.05 7.33782H1708.65V19.1928H1690.05V7.33782ZM1679.76 27.3153H1845.1V124.425H1679.76V27.3153ZM1655.23 7.33782H1673.82V19.1928H1655.23V7.33782ZM1620.38 7.33782H1638.98V19.1928H1620.38V7.33782ZM1585.56 7.33782H1604.16V19.1928H1585.56V7.33782ZM1550.72 7.33782H1569.31V19.1928H1550.72V7.33782ZM1515.89 7.33782H1534.49V19.1928H1515.89V7.33782ZM1481.05 7.33782H1499.65V19.1928H1481.05V7.33782ZM1481.05 132.462H1499.65V144.317H1481.05V132.462ZM1475.81 124.425H1310.48V27.3153H1475.81V124.425ZM1446.23 7.33782H1464.82V19.1928H1446.23V7.33782ZM1411.38 7.33782H1429.98V19.1928H1411.38V7.33782ZM1376.56 7.33782H1395.16V19.1928H1376.56V7.33782ZM1341.71 7.33782H1360.31V19.1928H1341.71V7.33782ZM1306.87 7.33782H1325.47V19.1928H1306.87V7.33782ZM1306.87 132.462H1325.47V144.317H1306.87V132.462ZM1272.05 7.33782H1290.65V19.1928H1272.05V7.33782ZM1237.2 7.33782H1255.8V19.1928H1237.2V7.33782ZM1202.38 7.33782H1220.98V19.1928H1202.38V7.33782ZM1167.54 7.33782H1186.14V19.1928H1167.54V7.33782ZM1132.71 7.33782H1151.31V19.1928H1132.71V7.33782ZM1125.84 27.3153H1291.18V124.425H1125.84V27.3153ZM1097.87 7.33782H1116.47V19.1928H1097.87V7.33782ZM1063.05 7.33782H1081.65V19.1928H1063.05V7.33782ZM1028.2 7.33782H1046.8V19.1928H1028.2V7.33782ZM993.36 7.33782H1011.96V19.1928H993.36V7.33782ZM958.538 7.33782H977.137V19.1928H958.538V7.33782ZM923.694 7.33782H942.293V19.1928H923.694V7.33782ZM923.694 132.462H942.293V144.317H923.694V132.462ZM921.891 124.425H756.557V27.3153H921.891V124.425ZM888.871 7.33782H907.47V19.1928H888.871V7.33782ZM854.027 7.33782H872.626V19.1928H854.027V7.33782ZM819.204 7.33782H837.803V19.1928H819.204V7.33782ZM784.36 7.33782H802.959V19.1928H784.36V7.33782ZM749.537 7.33782H768.136V19.1928H749.537V7.33782ZM749.537 132.462H768.136V144.317H749.537V132.462ZM714.693 7.33782H733.292V19.1928H714.693V7.33782ZM679.849 7.33782H698.448V19.1928H679.849V7.33782ZM645.027 7.33782H663.626V19.1928H645.027V7.33782ZM610.183 7.33782H628.782V19.1928H610.183V7.33782ZM575.36 7.33782H593.959V19.1928H575.36V7.33782ZM571.924 27.3153H737.258V124.425H571.924V27.3153ZM540.516 7.33782H559.115V19.1928H540.516V7.33782ZM505.693 7.33782H524.292V19.1928H505.693V7.33782ZM470.849 7.33782H489.448V19.1928H470.849V7.33782ZM436.027 7.33782H454.626V19.1928H436.027V7.33782ZM401.183 7.33782H419.782V19.1928H401.183V7.33782ZM387.292 27.3153H552.626V124.425H387.292V27.3153ZM366.339 7.33782H384.938V19.1928H366.339V7.33782ZM331.516 7.33782H350.115V19.1928H331.516V7.33782ZM296.672 7.33782H315.271V19.1928H296.672V7.33782ZM261.849 7.33782H280.448V19.1928H261.849V7.33782ZM227.005 7.33782H245.604V19.1928H227.005V7.33782ZM192.183 7.33782H210.782V19.1928H192.183V7.33782ZM192.183 132.462H210.782V144.317H192.183V132.462ZM183.339 124.425H18.0052V27.3153H183.339V124.425ZM157.339 7.33782H175.938V19.1928H157.339V7.33782ZM122.516 7.33782H141.115V19.1928H122.516V7.33782ZM87.6719 7.33782H106.271V19.1928H87.6719V7.33782ZM52.8279 7.33782H71.4269V19.1928H52.8279V7.33782ZM36.6042 19.1928H18.0052V7.33782H36.6042V19.1928Z" fill="#292929"/>
</svg>
